<?xml version="1.0" encoding="utf-8"?><svg viewBox="0 0 502.66 502.66" xmlns="http://www.w3.org/2000/svg" xmlns:xlink="http://www.w3.org/1999/xlink"><style>:root>svg{display:none}:root>svg:target{display:block}</style><svg viewBox="0 0 21.874 21.874" id="capital-a" xmlns="http://www.w3.org/2000/svg"><path d="M20.607 21.874h-3.114a.603.603 0 01-.564-.386l-2.262-5.873H6.864l-2.125 5.861a.603.603 0 01-.568.398H1.267a.604.604 0 01-.564-.821L8.639.387A.602.602 0 019.203 0h2.947c.245 0 .466.148.559.375l8.458 20.665a.603.603 0 01-.56.834zM8.102 12.179h5.261l-1.849-4.906a80.508 80.508 0 01-.821-2.262 27.006 27.006 0 01-.627 1.919l-1.964 5.249z"/></svg><svg viewBox="0 0 502.664 502.664" id="icon" xmlns="http://www.w3.org/2000/svg"><path d="M153.821 358.226L0 274.337v-46.463l153.821-83.414v54.574L46.636 250.523l107.185 53.431v54.272zm26.273 29.358L282.103 115.08h32.227L212.084 387.584h-31.99zm168.749-29.358v-54.272l107.164-52.999-107.164-52.59v-53.927l153.821 83.522v46.183l-153.821 84.083z"/></svg></svg>